#!OML:ASF X:\für Bonn\!DataBase\2005_08_12_Daniel\c3d\Daniel.ASF
:FULLY-SPECIFIED
:DEGREES
33
root 0.347771 15.4889 -0.98015 19.9869 -88.0411 -36.0063
lowerback 34.4537 -2.36335 3.70345
upperback 2.83197 -2.42487 -2.26803
thorax -14.7342 -1.52347 -3.38017
lowerneck 8.25601 1.40883 -0.167131
upperneck 1.80562 1.77306 -0.683294
head -0.805867 0.862136 -0.236783
rclavicle 1.28216e-014 -1.59028e-015
rhumerus 58.4267 0.236253 -100.38
rradius 8.23544
rwrist 61.0071
rhand -18.4119 7.28641
rfingers 7.12502
rthumb 7.87278 -22.547
lclavicle 1.28216e-014 -1.59028e-015
lhumerus 63.0838 6.88826 107.987
lradius 9.56409
lwrist -79.1694
lhand -15.0583 0.171601
lfingers 7.12502
lthumb 11.1085 29.8576
rfemur -10.5707 -16.9344 9.15056
rtibia 61.0972
rfoot -26.2421 14.4403
rtoes -11.9046
lfemur -17.0434 10.1908 -7.80243
ltibia 65.348
lfoot -31.2005 -8.04489
ltoes -0.0273086
34
root 0.368266 15.3646 -0.972727 19.8001 -88.0228 -36.0028
lowerback 34.9693 -2.38861 3.72663
upperback 2.87345 -2.44143 -2.25652
thorax -14.8944 -1.53643 -3.3601
lowerneck 8.2508 1.38445 -0.0495918
upperneck 1.7182 1.75164 -0.785614
head -0.830988 0.854644 -0.287679
rclavicle 1.08338e-014 -4.77083e-015
rhumerus 58.6215 0.169848 -100.383
rradius 8.32951
rwrist 60.8331
rhand -18.4673 7.46356
rfingers 7.12502
rthumb 7.81937 -22.3718
lclavicle 1.08338e-014 -4.77083e-015
lhumerus 63.46 6.91306 108.366
lradius 9.40668
lwrist -79.6213
lhand -15.3424 0.220264
lfingers 7.12502
lthumb 10.8345 29.9208
rfemur -11.7471 -17.8099 8.55292
rtibia 63.4243
rfoot -25.6504 15.7832
rtoes -11.4845
lfemur -17.946 11.1769 -7.26118
ltibia 67.14
lfoot -31.0349 -9.76382
ltoes 0.307351
35
root 0.390556 15.2299 -0.965008 19.9044 -87.9802 -36.2881
lowerback 35.503 -2.43423 3.7948
upperback 2.90031 -2.46701 -2.25863
thorax -15.0796 -1.55662 -3.37463
lowerneck 8.27207 1.35826 0.0887775
upperneck 1.6339 1.7293 -0.875108
head -0.85971 0.846442 -0.338377
rclavicle 7.40473e-015 4.37326e-015
rhumerus 58.8288 0.0748132 -100.401
rradius 8.37656
rwrist 60.815
rhand -18.6083 7.59081
rfingers 7.12502
rthumb 7.68324 -22.2496
lclavicle 7.40473e-015 4.37326e-015
lhumerus 63.775 6.92794 108.721
lradius 9.31355
lwrist -80.1611
lhand -15.6294 0.246676
lfingers 7.12502
lthumb 10.5577 29.9615
rfemur -12.9514 -18.7878 7.912
rtibia 65.8081
rfoot -24.9898 17.1737
rtoes -11.1669
lfemur -18.9119 12.0975 -6.68825
ltibia 69.0058
lfoot -30.863 -11.546
ltoes 0.570714
36
root 0.41327 15.0894 -0.95774 20.0028 -87.9425 -36.5634
lowerback 36.05 -2.47642 3.84092
upperback 2.91017 -2.4934 -2.25219
thorax -15.2865 -1.57574 -3.36705
lowerneck 8.31645 1.33582 0.231875
upperneck 1.53432 1.71211 -0.974572
head -0.897248 0.841038 -0.393547
rclavicle 6.75868e-015 1.47101e-014
rhumerus 59.0611 -0.00208206 -100.418
rradius 8.36015
rwrist 60.8515
rhand -18.819 7.74115
rfingers 7.12502
rthumb 7.47982 -22.1066
lclavicle 6.75868e-015 1.47101e-014
lhumerus 64.054 6.95594 109.081
lradius 9.24331
lwrist -80.8005
lhand -15.9394 0.312374
lfingers 7.12502
lthumb 10.2586 30.0422
rfemur -14.1793 -19.7632 7.22582
rtibia 68.2228
rfoot -24.2351 18.6747
rtoes -10.8516
lfemur -19.9118 12.9751 -6.10956
ltibia 70.9237
lfoot -30.6242 -13.3788
ltoes 0.936866
37
root 0.435702 14.9423 -0.950176 19.5917 -87.9265 -36.3261
lowerback 36.5909 -2.51353 3.86864
upperback 2.92798 -2.52215 -2.25215
thorax -15.4789 -1.59491 -3.35546
lowerneck 8.29021 1.32903 0.340162
upperneck 1.46932 1.71333 -1.04722
head -0.91214 0.844063 -0.43438
rclavicle -3.42904e-015 1.55052e-014
rhumerus 59.3578 -0.0482099 -100.444
rradius 8.29184
rwrist 61.0473
rhand -19.0832 7.83617
rfingers 7.12502
rthumb 7.22482 -22.0205
lclavicle -3.42904e-015 1.55052e-014
lhumerus 64.3651 7.00601 109.434
lradius 9.15352
lwrist -81.4659
lhand -16.261 0.364256
lfingers 7.12502
lthumb 9.94838 30.1092
rfemur -15.4272 -20.6993 6.48559
rtibia 70.6541
rfoot -23.2334 20.3383
rtoes -10.0883
lfemur -20.9458 13.8945 -5.52744
ltibia 72.8875
lfoot -30.3865 -15.2838
ltoes 1.15331
38
root 0.456295 14.7913 -0.943054 19.4943 -87.9077 -36.3947
lowerback 37.1708 -2.54384 3.89183
upperback 2.87702 -2.53619 -2.22757
thorax -15.6463 -1.60617 -3.32188
lowerneck 8.26506 1.32233 0.388955
upperneck 1.40493 1.70917 -1.10848
head -0.927595 0.843951 -0.461622
rclavicle 4.96962e-016 1.70955e-014
rhumerus 59.6816 -0.0899851 -100.434
rradius 8.20435
rwrist 61.2668
rhand -19.322 7.90033
rfingers 7.12502
rthumb 6.99436 -21.9641
lclavicle 4.96962e-016 1.70955e-014
lhumerus 64.6541 7.03913 109.832
lradius 9.06126
lwrist -82.1945
lhand -16.6482 0.424068
lfingers 7.12502
lthumb 9.5748 30.1865
rfemur -16.6762 -21.5921 5.74398
rtibia 73.0825
rfoot -22.0192 22.0476
rtoes -9.09622
lfemur -22.0114 14.829 -4.92538
ltibia 74.8873
lfoot -30.1695 -17.1053
ltoes 1.19296
